<?xml version="1.0" standalone="no"?>
<!DOCTYPE svg PUBLIC "-//W3C//DTD SVG 20010904//EN"
 "http://www.w3.org/TR/2001/REC-SVG-20010904/DTD/svg10.dtd">
<svg version="1.0" xmlns="http://www.w3.org/2000/svg"
 width="1707.000000pt" height="1707.000000pt" viewBox="0 0 1707.000000 1707.000000"
 preserveAspectRatio="xMidYMid meet">
<metadata>
Created by potrace 1.11, written by Peter Selinger 2001-2013
</metadata>
<g transform="translate(0.000000,1707.000000) scale(0.100000,-0.100000)"
fill="#000000" stroke="none">
<path d="M13817 17064 c-1 -1 -34 -4 -74 -8 -40 -3 -129 -17 -198 -31 -370
-75 -708 -229 -1020 -464 -125 -94 -338 -306 -434 -431 -65 -85 -211 -316
-211 -335 0 -4 -9 -19 -19 -33 -10 -15 -19 -30 -20 -34 -2 -9 -30 -74 -59
-138 -40 -87 -209 -506 -331 -820 -82 -214 -253 -646 -266 -675 -7 -16 -41
-94 -74 -173 -109 -252 -258 -557 -374 -762 -11 -19 -31 -55 -45 -80 -97 -173
-276 -441 -416 -623 -50 -65 -104 -134 -119 -155 -15 -20 -33 -41 -40 -47 -7
-5 -25 -26 -41 -45 -86 -106 -355 -385 -502 -521 -45 -41 -196 -171 -305 -261
-36 -29 -332 -262 -524 -411 -22 -17 -44 -35 -50 -39 -5 -5 -35 -27 -65 -50
-30 -24 -57 -45 -60 -48 -3 -3 -22 -18 -43 -33 l-37 -28 -138 107 c-75 59
-155 121 -177 138 -109 84 -429 339 -440 351 -5 6 -39 36 -75 66 -251 209
-535 498 -733 744 -9 11 -47 58 -85 105 -84 105 -203 270 -290 404 -61 94
-202 325 -202 331 0 2 -16 32 -36 67 -52 92 -214 416 -269 538 -26 58 -58 129
-71 158 -13 29 -24 55 -24 58 0 3 -11 29 -24 57 -49 107 -164 394 -257 639
-57 152 -111 291 -191 493 -73 182 -94 235 -148 360 -9 22 -32 76 -51 120
-155 364 -352 632 -655 891 -32 28 -75 61 -94 75 -19 13 -37 27 -40 30 -3 3
-32 24 -65 46 -303 204 -659 344 -1010 397 -76 11 -163 14 -360 11 -143 -2
-276 -6 -295 -9 -161 -25 -448 -110 -600 -177 -340 -152 -622 -385 -843 -697
-20 -28 -37 -56 -37 -61 0 -5 -4 -11 -8 -13 -8 -3 -32 -44 -99 -168 -123 -229
-229 -563 -258 -815 -14 -127 -21 -505 -11 -580 3 -16 7 -55 10 -85 24 -254
135 -631 253 -865 108 -214 190 -337 342 -515 284 -331 657 -584 1058 -716
212 -69 286 -79 618 -78 214 0 250 3 335 23 285 68 510 146 705 242 140 69
181 101 404 311 154 145 208 182 269 181 93 0 162 -62 303 -271 49 -73 89
-134 89 -137 0 -2 27 -49 60 -103 33 -55 60 -103 60 -107 0 -4 8 -19 18 -33
11 -15 37 -61 59 -102 22 -41 54 -100 71 -130 16 -30 67 -125 112 -210 45 -85
97 -182 115 -215 18 -33 51 -96 75 -140 24 -44 50 -93 60 -110 9 -16 36 -66
60 -110 24 -44 76 -136 116 -205 39 -69 81 -142 93 -162 48 -86 61 -108 128
-219 38 -64 73 -123 77 -130 3 -8 14 -26 24 -41 9 -15 35 -55 56 -90 192 -310
456 -712 617 -940 38 -53 69 -102 69 -108 0 -6 -36 -62 -80 -123 -44 -62 -84
-119 -90 -127 -6 -8 -95 -134 -199 -280 -103 -146 -299 -422 -435 -615 -136
-192 -254 -359 -262 -370 -18 -25 -274 -385 -312 -440 -16 -22 -122 -173 -237
-335 -115 -162 -221 -313 -237 -335 -16 -22 -35 -49 -43 -60 -10 -15 -923
-1303 -1183 -1670 -23 -33 -47 -67 -52 -75 -6 -8 -119 -168 -252 -355 -133
-187 -353 -500 -490 -695 -136 -195 -251 -359 -255 -365 -17 -22 -162 -243
-190 -290 -52 -87 -180 -356 -231 -485 -91 -229 -168 -486 -201 -675 -6 -33
-14 -73 -17 -90 -17 -90 -27 -275 -28 -475 0 -265 7 -330 69 -617 17 -78 104
-326 152 -433 16 -36 110 -225 134 -270 53 -98 136 -221 157 -232 23 -12 27
-10 59 27 35 41 442 581 493 655 8 12 29 41 46 64 17 22 61 82 97 131 37 50
75 101 84 114 10 13 71 96 136 185 65 89 123 168 130 176 7 8 65 87 129 175
192 261 382 519 403 547 11 14 27 36 35 48 8 12 24 33 34 47 10 14 72 98 137
187 65 88 122 166 126 171 5 6 114 154 243 330 129 176 238 325 243 330 4 6
88 120 187 255 98 135 229 313 289 395 61 83 165 224 232 315 67 91 148 201
180 245 33 44 67 91 77 104 9 13 58 79 107 146 250 342 1088 1482 1102 1500 5
6 51 69 103 140 52 72 98 135 103 140 4 6 49 66 100 135 303 413 633 859 650
880 7 8 29 39 50 68 21 28 42 52 47 52 15 0 77 -77 240 -300 90 -124 173 -237
184 -251 12 -15 29 -37 38 -50 26 -38 146 -203 155 -214 5 -5 87 -118 183
-250 96 -132 178 -244 183 -250 4 -5 141 -192 303 -415 163 -223 304 -416 314
-430 10 -14 51 -70 92 -125 40 -55 76 -104 81 -110 4 -5 69 -93 143 -195 74
-102 202 -277 284 -390 83 -113 193 -263 245 -335 52 -71 102 -138 110 -148 8
-9 15 -21 15 -26 0 -5 3 -11 8 -13 6 -2 166 -219 300 -406 9 -13 31 -42 48
-65 50 -68 155 -211 416 -567 134 -184 373 -510 529 -725 157 -214 392 -536
523 -715 130 -179 246 -336 256 -350 56 -74 186 -254 195 -268 6 -9 12 -19 15
-22 5 -4 64 -85 324 -441 23 -31 79 -109 126 -174 47 -64 103 -141 125 -170
22 -30 58 -79 80 -109 l39 -56 82 0 82 0 76 130 c94 162 152 281 211 435 45
117 110 334 121 405 3 19 9 51 14 70 5 19 12 64 15 100 4 36 8 67 10 70 2 3 6
50 11 105 14 196 5 431 -26 615 -5 30 -12 75 -15 100 -4 24 -8 47 -10 51 -2 3
-7 21 -10 40 -19 108 -111 425 -150 514 -7 17 -25 61 -39 98 -43 110 -76 182
-158 344 -93 184 -142 263 -312 508 -72 104 -138 199 -146 211 -8 12 -105 150
-215 305 -110 156 -221 313 -246 349 -47 67 -146 206 -177 249 -21 29 -60 85
-131 188 -30 43 -84 119 -120 170 -36 51 -89 125 -117 165 -46 66 -116 165
-448 636 -56 78 -132 187 -171 242 -124 176 -329 468 -514 730 -99 140 -185
262 -191 270 -6 8 -86 123 -180 255 -93 132 -213 303 -267 379 -54 77 -125
178 -159 225 -33 47 -260 370 -504 716 -244 347 -448 632 -452 633 -4 2 -8 8
-8 13 0 4 -14 28 -31 53 l-31 44 169 243 c427 613 714 1075 1088 1754 94 171
136 247 167 305 20 36 47 85 60 110 14 25 45 83 70 130 206 382 224 415 326
590 246 421 362 533 495 476 49 -21 125 -81 244 -196 60 -58 126 -118 146
-135 21 -16 44 -35 51 -42 30 -27 146 -97 221 -133 81 -39 301 -125 346 -134
13 -3 62 -17 108 -30 112 -34 291 -74 369 -82 84 -9 275 -9 394 0 125 9 296
45 426 90 135 46 144 50 290 123 553 279 979 763 1190 1354 37 106 88 281 106
369 3 14 8 36 11 50 3 14 8 41 11 60 3 19 7 42 9 50 6 20 16 103 21 159 4 58
4 441 -1 501 -10 136 -34 255 -91 452 -172 595 -539 1068 -1025 1321 -135 70
-421 178 -535 202 -10 2 -50 10 -89 19 -121 26 -252 37 -454 40 -83 1 -152 2
-154 0z m363 -1014 c30 -6 65 -13 77 -16 99 -20 306 -118 443 -209 261 -173
418 -440 484 -820 19 -106 14 -361 -8 -482 -65 -358 -207 -622 -453 -842 -186
-166 -372 -263 -608 -318 -162 -37 -453 -39 -625 -4 -258 53 -475 168 -658
350 -194 192 -281 365 -327 651 -10 63 -14 304 -5 350 4 25 10 61 13 80 28
203 159 481 323 686 73 92 225 235 327 308 108 77 296 174 420 215 48 17 87
28 87 26 0 -3 12 0 26 6 91 34 358 45 484 19z m-10945 -44 c250 -27 557 -166
770 -349 322 -277 511 -609 563 -987 22 -165 -2 -420 -58 -595 -78 -246 -318
-513 -579 -645 -229 -115 -529 -173 -780 -148 -531 51 -969 373 -1164 857 -48
119 -66 188 -102 381 -11 55 -14 364 -5 407 5 21 10 54 13 73 30 228 178 514
347 673 142 134 401 271 599 319 98 23 256 28 396 14z"/>
</g>
</svg>
